<svg viewBox="0 0 900 918" xmlns="http://www.w3.org/2000/svg" font-family="-apple-system,Segoe UI,Roboto,Helvetica,Arial,sans-serif">
<rect x="0" y="0" width="900" height="918" rx="20" fill="#0d1117"/>
<text x="48" y="56" fill="#58a6ff" font-size="14" font-weight="700" letter-spacing="3">THE EXPLAINERS SERIES</text>
<text x="48" y="92" fill="#e6edf3" font-size="30" font-weight="800">From GPUs to the Frontier</text>
<text x="852" y="92" text-anchor="end" fill="#9aa7b4" font-size="13">8 visual explainers · a programmer’s path into AI/ML</text>
<line x1="80" y1="173.0" x2="80" y2="841.0" stroke="#2a3340" stroke-width="3"/>
<rect x="44" y="128" width="808" height="90" rx="12" fill="#161b22" stroke="#2a3340"/>
<rect x="44" y="128" width="5" height="90" rx="2.5" fill="#58a6ff"/>
<text x="840" y="150" text-anchor="end" fill="#58a6ff" font-size="11" font-weight="700" letter-spacing="2">HARDWARE</text>
<rect x="44" y="232" width="808" height="164" rx="12" fill="#161b22" stroke="#2a3340"/>
<rect x="44" y="232" width="5" height="164" rx="2.5" fill="#3fb950"/>
<text x="840" y="254" text-anchor="end" fill="#3fb950" font-size="11" font-weight="700" letter-spacing="2">DATA &amp; MATH</text>
<rect x="44" y="410" width="808" height="90" rx="12" fill="#161b22" stroke="#2a3340"/>
<rect x="44" y="410" width="5" height="90" rx="2.5" fill="#d29922"/>
<text x="840" y="432" text-anchor="end" fill="#d29922" font-size="11" font-weight="700" letter-spacing="2">LEARNING</text>
<rect x="44" y="514" width="808" height="90" rx="12" fill="#161b22" stroke="#2a3340"/>
<rect x="44" y="514" width="5" height="90" rx="2.5" fill="#bc8cff"/>
<text x="840" y="536" text-anchor="end" fill="#bc8cff" font-size="11" font-weight="700" letter-spacing="2">FRAMEWORK</text>
<rect x="44" y="618" width="808" height="164" rx="12" fill="#161b22" stroke="#2a3340"/>
<rect x="44" y="618" width="5" height="164" rx="2.5" fill="#f78166"/>
<text x="840" y="640" text-anchor="end" fill="#f78166" font-size="11" font-weight="700" letter-spacing="2">ARCHITECTURE</text>
<rect x="44" y="796" width="808" height="90" rx="12" fill="#161b22" stroke="#2a3340"/>
<rect x="44" y="796" width="5" height="90" rx="2.5" fill="#ff7eb6"/>
<text x="840" y="818" text-anchor="end" fill="#ff7eb6" font-size="11" font-weight="700" letter-spacing="2">FRONTIER</text>
<circle cx="80" cy="173.0" r="20" fill="#58a6ff"/>
<text x="80" y="179.0" text-anchor="middle" fill="#04101f" font-size="17" font-weight="800">1</text>
<text x="120" y="170.0" fill="#e6edf3" font-size="18" font-weight="700">How GPUs Work</text>
<text x="266" y="169.0" fill="#3fb950" font-size="11" font-weight="700">● LIVE</text>
<text x="120" y="191.0" fill="#9aa7b4" font-size="13.5">Parallel hardware &amp; the execution model</text>
<circle cx="80" cy="277.0" r="20" fill="#3fb950"/>
<text x="80" y="283.0" text-anchor="middle" fill="#04101f" font-size="17" font-weight="800">2</text>
<text x="120" y="274.0" fill="#e6edf3" font-size="18" font-weight="700">Tensors</text>
<text x="206" y="273.0" fill="#3fb950" font-size="11" font-weight="700">● LIVE</text>
<text x="120" y="295.0" fill="#9aa7b4" font-size="13.5">The data structure of AI — shape, strides, dtypes</text>
<circle cx="80" cy="351.0" r="20" fill="#3fb950"/>
<text x="80" y="357.0" text-anchor="middle" fill="#04101f" font-size="17" font-weight="800">3</text>
<text x="120" y="348.0" fill="#e6edf3" font-size="18" font-weight="700">Matmul</text>
<text x="196" y="347.0" fill="#3fb950" font-size="11" font-weight="700">● LIVE</text>
<text x="120" y="369.0" fill="#9aa7b4" font-size="13.5">The one operation that runs the world</text>
<circle cx="80" cy="455.0" r="20" fill="#d29922"/>
<text x="80" y="461.0" text-anchor="middle" fill="#04101f" font-size="17" font-weight="800">4</text>
<text x="120" y="452.0" fill="#e6edf3" font-size="18" font-weight="700">How Machines Learn</text>
<text x="316" y="451.0" fill="#3fb950" font-size="11" font-weight="700">● LIVE</text>
<text x="120" y="473.0" fill="#9aa7b4" font-size="13.5">Gradients, autograd &amp; the training loop</text>
<circle cx="80" cy="559.0" r="20" fill="#bc8cff"/>
<text x="80" y="565.0" text-anchor="middle" fill="#04101f" font-size="17" font-weight="800">5</text>
<text x="120" y="556.0" fill="#e6edf3" font-size="18" font-weight="700">PyTorch</text>
<text x="206" y="555.0" fill="#3fb950" font-size="11" font-weight="700">● LIVE</text>
<text x="120" y="577.0" fill="#9aa7b4" font-size="13.5">Where tensors, autograd &amp; training meet</text>
<circle cx="80" cy="663.0" r="20" fill="#f78166"/>
<text x="80" y="669.0" text-anchor="middle" fill="#04101f" font-size="17" font-weight="800">6</text>
<text x="120" y="660.0" fill="#e6edf3" font-size="18" font-weight="700">Attention</text>
<text x="226" y="659.0" fill="#3fb950" font-size="11" font-weight="700">● LIVE</text>
<text x="120" y="681.0" fill="#9aa7b4" font-size="13.5">The idea that changed everything</text>
<circle cx="80" cy="737.0" r="20" fill="#f78166"/>
<text x="80" y="743.0" text-anchor="middle" fill="#04101f" font-size="17" font-weight="800">7</text>
<text x="120" y="734.0" fill="#e6edf3" font-size="18" font-weight="700">Transformers &amp; LLMs</text>
<text x="330" y="733.0" fill="#3fb950" font-size="11" font-weight="700">● LIVE</text>
<text x="120" y="755.0" fill="#9aa7b4" font-size="13.5">The full architecture, end to end</text>
<circle cx="80" cy="841.0" r="20" fill="#ff7eb6"/>
<text x="80" y="847.0" text-anchor="middle" fill="#04101f" font-size="17" font-weight="800">8</text>
<text x="120" y="838.0" fill="#e6edf3" font-size="18" font-weight="700">What's Next</text>
<text x="246" y="837.0" fill="#3fb950" font-size="11" font-weight="700">● LIVE</text>
<text x="120" y="859.0" fill="#9aa7b4" font-size="13.5">Scaling, MoE, efficiency — the frontier</text>
</svg>